<svg version="1.1" id="Layer_1" xmlns="http://www.w3.org/2000/svg" xmlns:xlink="http://www.w3.org/1999/xlink" x="0px" y="0px"
	 width="100%" viewBox="0 0 225 225" enable-background="new 0 0 225 225" xml:space="preserve">
<path fill="#0A66C2" opacity="1.000000" stroke="none" 
	d="
M109.000000,226.000000 
	C72.666672,226.000000 36.833336,226.000000 1.000005,226.000000 
	C1.000003,151.000000 1.000003,76.000015 1.000002,1.000015 
	C75.999992,1.000010 150.999985,1.000010 225.999969,1.000005 
	C225.999985,75.999985 225.999985,150.999969 226.000000,225.999969 
	C187.166672,226.000000 148.333328,226.000000 109.000000,226.000000 
M147.689468,125.249359 
	C147.586929,125.520058 147.643616,125.764885 148.040359,126.907875 
	C148.040359,142.513763 148.040359,158.119659 148.040359,173.765884 
	C157.058334,173.765884 165.446991,173.765884 173.931061,173.765884 
	C173.931061,154.617111 174.573654,135.783020 173.753479,117.012848 
	C172.903564,97.561478 155.685883,85.497551 136.953781,90.144409 
	C129.792252,91.920975 124.285995,96.289345 119.096611,103.071877 
	C119.096611,98.590660 119.096611,95.369957 119.096611,92.156273 
	C110.581795,92.156273 102.547432,92.156273 94.518661,92.156273 
	C94.518661,119.641273 94.518661,146.715454 94.518661,173.859375 
	C103.238266,173.859375 111.640221,173.859375 120.347160,173.859375 
	C120.347160,168.689285 120.302650,163.875885 120.356110,159.063568 
	C120.480019,147.908340 120.240738,136.727890 120.938171,125.607178 
	C121.460556,117.277809 127.667061,111.988609 135.354843,111.908211 
	C142.850891,111.829803 146.321594,115.475014 147.689468,125.249359 
M53.026596,92.664421 
	C53.026596,119.740753 53.026596,146.817093 53.026596,173.848938 
	C61.910988,173.848938 70.178772,173.848938 78.519501,173.848938 
	C78.519501,146.394104 78.519501,119.198875 78.519501,91.934151 
	C69.982437,91.934151 61.829327,91.934151 53.026596,92.664421 
M57.949192,78.783531 
	C64.573303,82.200859 70.661255,81.406784 76.490746,76.772957 
	C81.875465,72.492683 81.883919,66.934677 80.264687,61.211830 
	C78.433121,54.738499 72.832237,50.962467 66.010071,50.909061 
	C59.289085,50.856445 53.859314,54.415268 51.581146,60.366177 
	C49.065144,66.938339 51.083038,73.269997 57.949192,78.783531 
z"/>
<path fill="#FDFDFE" opacity="1.000000" stroke="none" 
	d="
M147.841629,125.022797 
	C146.321594,115.475014 142.850891,111.829803 135.354843,111.908211 
	C127.667061,111.988609 121.460556,117.277809 120.938171,125.607178 
	C120.240738,136.727890 120.480019,147.908340 120.356110,159.063568 
	C120.302650,163.875885 120.347160,168.689285 120.347160,173.859375 
	C111.640221,173.859375 103.238266,173.859375 94.518661,173.859375 
	C94.518661,146.715454 94.518661,119.641273 94.518661,92.156273 
	C102.547432,92.156273 110.581795,92.156273 119.096611,92.156273 
	C119.096611,95.369957 119.096611,98.590660 119.096611,103.071877 
	C124.285995,96.289345 129.792252,91.920975 136.953781,90.144409 
	C155.685883,85.497551 172.903564,97.561478 173.753479,117.012848 
	C174.573654,135.783020 173.931061,154.617111 173.931061,173.765884 
	C165.446991,173.765884 157.058334,173.765884 148.040359,173.765884 
	C148.040359,158.119659 148.040359,142.513763 148.000061,126.204559 
	C147.959747,125.501236 147.841629,125.022797 147.841629,125.022797 
z"/>
<path fill="#FEFEFF" opacity="1.000000" stroke="none" 
	d="
M53.351410,92.299286 
	C61.829327,91.934151 69.982437,91.934151 78.519501,91.934151 
	C78.519501,119.198875 78.519501,146.394104 78.519501,173.848938 
	C70.178772,173.848938 61.910988,173.848938 53.026596,173.848938 
	C53.026596,146.817093 53.026596,119.740753 53.351410,92.299286 
z"/>
<path fill="#FCFDFE" opacity="1.000000" stroke="none" 
	d="
M57.634468,78.578018 
	C51.083038,73.269997 49.065144,66.938339 51.581146,60.366177 
	C53.859314,54.415268 59.289085,50.856445 66.010071,50.909061 
	C72.832237,50.962467 78.433121,54.738499 80.264687,61.211830 
	C81.883919,66.934677 81.875465,72.492683 76.490746,76.772957 
	C70.661255,81.406784 64.573303,82.200859 57.634468,78.578018 
z"/>
<path fill="#0059BE" opacity="1.000000" stroke="none" 
	d="
M147.765549,125.136078 
	C147.841629,125.022797 147.959747,125.501236 147.909622,125.742531 
	C147.643616,125.764885 147.586929,125.520058 147.765549,125.136078 
z"/>
</svg>